<svg xmlns="http://www.w3.org/2000/svg" width="880" height="400" viewBox="0 0 880 400" role="img" font-family="system-ui, -apple-system, 'Segoe UI', sans-serif">
  <text x="8" y="17" font-size="12" fill="#52514e">Median throughput as a multiple of RNS 1.4.2 (compiled) · higher is better</text>
  <line x1="345.4" y1="34.0" x2="345.4" y2="378.0" stroke="#c3c2b7" stroke-width="1"/>
  <text x="345.4" y="394.0" font-size="11" fill="#898781" text-anchor="middle" font-variant-numeric="tabular-nums">1×</text>
  <line x1="457.8" y1="34.0" x2="457.8" y2="378.0" stroke="#e1e0d9" stroke-width="1"/>
  <text x="457.8" y="394.0" font-size="11" fill="#898781" text-anchor="middle" font-variant-numeric="tabular-nums">10×</text>
  <line x1="582.7" y1="34.0" x2="582.7" y2="378.0" stroke="#e1e0d9" stroke-width="1"/>
  <text x="582.7" y="394.0" font-size="11" fill="#898781" text-anchor="middle" font-variant-numeric="tabular-nums">20×</text>
  <line x1="707.6" y1="34.0" x2="707.6" y2="378.0" stroke="#e1e0d9" stroke-width="1"/>
  <text x="707.6" y="394.0" font-size="11" fill="#898781" text-anchor="middle" font-variant-numeric="tabular-nums">30×</text>
  <line x1="332.9" y1="34.0" x2="332.9" y2="378.0" stroke="#c3c2b7" stroke-width="1"/>
  <text x="322.9" y="55.5" font-size="13" fill="#52514e" text-anchor="end">Single-packet throughput</text>
  <path d="M332.9,41.0 L428.8,41.0 Q432.8,41.0 432.8,45.0 L432.8,57.0 Q432.8,61.0 428.8,61.0 L332.9,61.0 Z" fill="#2a78d6"/>
  <text x="440.8" y="55.5" font-size="12.5" font-weight="600" fill="#0b0b0b">8.00×</text>
  <text x="322.9" y="89.5" font-size="13" fill="#52514e" text-anchor="end">Link-message throughput</text>
  <path d="M332.9,75.0 L462.0,75.0 Q466.0,75.0 466.0,79.0 L466.0,91.0 Q466.0,95.0 462.0,95.0 L332.9,95.0 Z" fill="#2a78d6"/>
  <text x="474.0" y="89.5" font-size="12.5" font-weight="600" fill="#0b0b0b">10.65×</text>
  <text x="322.9" y="123.5" font-size="13" fill="#52514e" text-anchor="end">Request/response</text>
  <path d="M332.9,109.0 L525.4,109.0 Q529.4,109.0 529.4,113.0 L529.4,125.0 Q529.4,129.0 525.4,129.0 L332.9,129.0 Z" fill="#2a78d6"/>
  <text x="537.4" y="123.5" font-size="12.5" font-weight="600" fill="#0b0b0b">15.73×</text>
  <text x="322.9" y="157.5" font-size="13" fill="#52514e" text-anchor="end">Maximum resource segment</text>
  <path d="M332.9,143.0 L358.6,143.0 Q362.6,143.0 362.6,147.0 L362.6,159.0 Q362.6,163.0 358.6,163.0 L332.9,163.0 Z" fill="#2a78d6"/>
  <text x="370.6" y="157.5" font-size="12.5" font-weight="600" fill="#0b0b0b">2.38×</text>
  <text x="322.9" y="191.5" font-size="13" fill="#52514e" text-anchor="end">Maximum resource segment · 1 Gbps policy</text>
  <path d="M332.9,177.0 L424.4,177.0 Q428.4,177.0 428.4,181.0 L428.4,193.0 Q428.4,197.0 424.4,197.0 L332.9,197.0 Z" fill="#2a78d6"/>
  <text x="436.4" y="191.5" font-size="12.5" font-weight="600" fill="#0b0b0b">7.64×</text>
  <text x="322.9" y="225.5" font-size="13" fill="#52514e" text-anchor="end">64-segment resource stream</text>
  <path d="M332.9,211.0 L358.8,211.0 Q362.8,211.0 362.8,215.0 L362.8,227.0 Q362.8,231.0 358.8,231.0 L332.9,231.0 Z" fill="#2a78d6"/>
  <text x="370.8" y="225.5" font-size="12.5" font-weight="600" fill="#0b0b0b">2.39×</text>
  <text x="322.9" y="259.5" font-size="13" fill="#52514e" text-anchor="end">64-segment resource stream · 1 Gbps policy</text>
  <path d="M332.9,245.0 L434.3,245.0 Q438.3,245.0 438.3,249.0 L438.3,261.0 Q438.3,265.0 434.3,265.0 L332.9,265.0 Z" fill="#2a78d6"/>
  <text x="446.3" y="259.5" font-size="12.5" font-weight="600" fill="#0b0b0b">8.44×</text>
  <text x="322.9" y="293.5" font-size="13" fill="#52514e" text-anchor="end">Raw transport throughput</text>
  <path d="M332.9,279.0 L814.0,279.0 Q818.0,279.0 818.0,283.0 L818.0,295.0 Q818.0,299.0 814.0,299.0 L332.9,299.0 Z" fill="#2a78d6"/>
  <text x="826.0" y="293.5" font-size="12.5" font-weight="600" fill="#0b0b0b">38.84×</text>
  <text x="322.9" y="327.5" font-size="13" fill="#52514e" text-anchor="end">Transported resource throughput</text>
  <path d="M332.9,313.0 L344.8,313.0 Q348.8,313.0 348.8,317.0 L348.8,329.0 Q348.8,333.0 344.8,333.0 L332.9,333.0 Z" fill="#2a78d6"/>
  <text x="356.8" y="327.5" font-size="12.5" font-weight="600" fill="#0b0b0b">1.27×</text>
  <text x="322.9" y="361.5" font-size="13" fill="#52514e" text-anchor="end">Transported resource throughput · 1 Gbps policy</text>
  <path d="M332.9,347.0 L387.1,347.0 Q391.1,347.0 391.1,351.0 L391.1,363.0 Q391.1,367.0 387.1,367.0 L332.9,367.0 Z" fill="#2a78d6"/>
  <text x="399.1" y="361.5" font-size="12.5" font-weight="600" fill="#0b0b0b">4.66×</text>
  <line x1="332.9" y1="378.0" x2="818.0" y2="378.0" stroke="#c3c2b7" stroke-width="1"/>
</svg>
