<svg role="img" aria-label="Prns" viewBox="0 0 100 100" xmlns="http://www.w3.org/2000/svg">
  <rect x="0" y="0" width="100" height="100" rx="22" fill="#0b0e13"/>
  <g transform="translate(13,13) scale(0.74)">
    <circle cx="50" cy="50" r="37" fill="none" stroke="#6ee7b7" stroke-width="3.4"/>
    <g stroke="#6ee7b7" stroke-width="3.4" stroke-linecap="round" transform="rotate(46 50 50)">
      <line x1="50" y1="7" x2="50" y2="16"/><line x1="50" y1="84" x2="50" y2="93"/>
      <line x1="7" y1="50" x2="16" y2="50"/><line x1="84" y1="50" x2="93" y2="50"/>
    </g>
    <g fill="none" stroke="#6ee7b7" stroke-linecap="round" stroke-width="3">
      <path d="M57.46 39.35 A13 13 0 0 1 57.46 60.65" opacity="0.9"/>
      <path d="M62.04 32.8 A21 21 0 0 1 62.04 67.2" opacity="0.45"/>
      <path d="M42.54 39.35 A13 13 0 0 0 42.54 60.65" opacity="0.9"/>
      <path d="M37.96 32.8 A21 21 0 0 0 37.96 67.2" opacity="0.45"/>
    </g>
    <circle cx="50" cy="50" r="6.5" fill="#34d399"/>
  </g>
</svg>
